<svg width="72" height="72" viewBox="0 0 72 72" fill="none" xmlns="http://www.w3.org/2000/svg">
<path d="M27.3354 46.6994H12.092L8.97782 56.3699C8.89586 56.7387 8.56805 56.9846 8.19926 56.9436H0.495636C0.0448923 56.9436 -0.0780379 56.6977 0.0448922 56.206L13.2394 18.3845C13.3623 17.9747 13.4853 17.606 13.6492 17.1142C13.8131 16.2537 13.895 15.3522 13.895 14.4507C13.854 14.2459 14.018 14.041 14.2228 14H14.3458H24.8358C25.1226 14 25.3275 14.1229 25.3685 14.3278L40.325 56.1241C40.4479 56.5748 40.325 56.7797 39.9152 56.7797H31.3511C31.0643 56.8207 30.7774 56.6158 30.6955 56.3289L27.3354 46.4945V46.6994ZM14.4687 38.5451H24.8768C24.6309 37.6845 24.3031 36.6601 23.9343 35.5947C23.5655 34.4884 23.1967 33.3 22.8279 32.0707C22.4182 30.8005 22.0494 29.5712 21.6396 28.3009C21.2299 27.0306 20.8611 25.8423 20.5333 24.6539C20.2054 23.5066 19.9186 22.4412 19.6318 21.4578H19.5498C19.181 23.2198 18.7303 24.9818 18.1566 26.7438C17.542 28.7106 16.9273 30.7595 16.2717 32.8083C15.739 34.8981 15.0833 36.824 14.4687 38.5451Z" fill="#FD7A64"/>
<path d="M64.4603 43.0115H51.4707C51.6346 44.2818 52.0444 45.5521 52.741 46.6584C53.4786 47.7648 54.503 48.6253 55.7323 49.117C57.3713 49.8136 59.1743 50.1824 60.9773 50.1414C62.4115 50.1005 63.8457 49.9775 65.2389 49.6907C66.5092 49.5268 67.7385 49.199 68.8858 48.7482C69.0907 48.5843 69.2136 48.6663 69.2136 49.0761V55.3455C69.2136 55.5094 69.1726 55.6733 69.1317 55.8372C69.0497 55.9601 68.9678 56.0421 68.8448 56.1241C67.5336 56.6977 66.1813 57.1075 64.7472 57.3534C62.8212 57.7221 60.8953 57.886 58.9285 57.8451C55.8142 57.8451 53.1917 57.3533 51.0609 56.4109C49.0531 55.5504 47.2911 54.1981 45.8979 52.5181C44.5866 50.92 43.6441 49.117 43.0705 47.1502C42.4968 45.2242 42.21 43.2164 42.21 41.1676C42.21 38.9548 42.5378 36.783 43.2344 34.6523C43.89 32.6034 44.9144 30.7185 46.3076 29.0384C47.6599 27.3994 49.3399 26.0881 51.2658 25.1457C53.1917 24.2032 55.4864 23.8754 58.1089 23.8754C60.2807 23.8344 62.4525 24.2442 64.4603 25.1457C66.1404 25.8832 67.6155 26.9896 68.7629 28.4238C69.8283 29.817 70.6888 31.3741 71.2215 33.0951C71.7542 34.7342 72 36.4143 72 38.0943C72 39.0777 71.9591 39.9382 71.9181 40.7168C71.8361 41.4954 71.7952 42.069 71.7542 42.4378C71.7132 42.7247 71.4673 42.9705 71.1805 42.9705C70.9346 42.9705 70.4839 43.0115 69.8283 43.0525C69.1726 43.1344 68.3941 43.1754 67.4516 43.1754C66.5092 43.1754 65.5257 43.0115 64.4603 43.0115ZM51.4707 37.0289H60.1168C61.1822 37.0289 61.9607 37.0289 62.4525 36.9879C62.7803 36.947 63.1081 36.865 63.3949 36.6601V36.2503C63.3949 35.7176 63.313 35.2259 63.1491 34.7342C62.4115 32.4395 60.2397 30.8824 57.8221 30.9643C55.5684 30.8414 53.4376 32.0297 52.3722 34.0786C51.8805 35.021 51.5936 36.0045 51.4707 37.0289Z" fill="#FD7A64"/>
</svg>
