<svg width="72" height="72" viewBox="0 0 72 72" fill="none" xmlns="http://www.w3.org/2000/svg">
<path fill-rule="evenodd" clip-rule="evenodd" d="M61.9997 64.9992L36 72L9.99984 64.9992L4 0H68.0002L61.9997 64.9992Z" fill="#0F84BA"/>
<path fill-rule="evenodd" clip-rule="evenodd" d="M35.9995 5.26477V66.4164L36.0585 66.4324L57.0988 60.7669L61.9556 5.26477H35.9995Z" fill="#029BE4"/>
<path fill-rule="evenodd" clip-rule="evenodd" d="M35.9767 21.5173L17.3677 29.2674L17.9848 36.9405L35.9767 29.2479L55.1152 21.0652L55.9088 13.2159L35.9767 21.5173Z" fill="white"/>
<mask id="mask0_110_147" style="mask-type:luminance" maskUnits="userSpaceOnUse" x="17" y="21" width="20" height="16">
<path fill-rule="evenodd" clip-rule="evenodd" d="M17.335 21.4849H36.0088V36.9729H17.335V21.4849Z" fill="url(#paint0_linear_110_147)"/>
</mask>
<g mask="url(#mask0_110_147)">
<path fill-rule="evenodd" clip-rule="evenodd" d="M17.3673 29.2674L17.9844 36.9406L35.9762 29.2479V21.5173L17.3673 29.2674Z" fill="url(#paint1_linear_110_147)"/>
</g>
<mask id="mask1_110_147" style="mask-type:luminance" maskUnits="userSpaceOnUse" x="35" y="13" width="21" height="17">
<path fill-rule="evenodd" clip-rule="evenodd" d="M35.9443 13.1838H55.9412V29.2803H35.9443V13.1838Z" fill="url(#paint2_linear_110_147)"/>
</mask>
<g mask="url(#mask1_110_147)">
<path fill-rule="evenodd" clip-rule="evenodd" d="M55.9088 13.2162L35.9767 21.5173V29.2479L55.1152 21.0652L55.9088 13.2162Z" fill="url(#paint3_linear_110_147)"/>
</g>
<path fill-rule="evenodd" clip-rule="evenodd" d="M17.396 29.2674L18.0133 36.9406L45.6194 37.0285L45.0019 47.2593L35.918 49.8168L27.1856 47.6119L26.6564 41.2617H18.5425L19.6009 53.521L36.0061 58.3717L52.3224 53.6089L54.4392 29.2674H17.396Z" fill="url(#paint4_linear_110_147)"/>
<path fill-rule="evenodd" clip-rule="evenodd" d="M35.9765 29.2674H17.3677L17.9848 36.9406L35.9765 36.998V29.2674ZM35.9765 49.7922L35.8884 49.8168L27.1572 47.6119L26.628 41.2617H18.5144L19.5726 53.521L35.9765 58.3717V49.7922Z" fill="black" fill-opacity="0.05098"/>
<path fill-rule="evenodd" clip-rule="evenodd" d="M15.6919 13.2162H55.9088L55.1152 21.0654H16.662L15.6919 13.2162Z" fill="url(#paint5_linear_110_147)"/>
<path fill-rule="evenodd" clip-rule="evenodd" d="M35.9767 13.2162H15.6919L16.662 21.0654H35.9767V13.2162Z" fill="black" fill-opacity="0.05098"/>
<defs>
<linearGradient id="paint0_linear_110_147" x1="26.6718" y1="21.5172" x2="26.6718" y2="36.9405" gradientUnits="userSpaceOnUse">
<stop stop-color="white" stop-opacity="0"/>
<stop offset="0.388" stop-color="white"/>
<stop offset="1" stop-color="white" stop-opacity="0.831"/>
</linearGradient>
<linearGradient id="paint1_linear_110_147" x1="26.6717" y1="21.5173" x2="26.6717" y2="36.9406" gradientUnits="userSpaceOnUse">
<stop stop-color="#D1D3D4"/>
<stop offset="0.388" stop-color="#D1D3D4"/>
<stop offset="1" stop-color="#D1D3D4"/>
</linearGradient>
<linearGradient id="paint2_linear_110_147" x1="45.9428" y1="13.2161" x2="45.9428" y2="29.2479" gradientUnits="userSpaceOnUse">
<stop stop-color="white" stop-opacity="0"/>
<stop offset="0.388" stop-color="white"/>
<stop offset="1" stop-color="white" stop-opacity="0.831"/>
</linearGradient>
<linearGradient id="paint3_linear_110_147" x1="45.9427" y1="13.2161" x2="45.9427" y2="29.2479" gradientUnits="userSpaceOnUse">
<stop stop-color="#D1D3D4"/>
<stop offset="0.388" stop-color="#D1D3D4"/>
<stop offset="1" stop-color="#D1D3D4"/>
</linearGradient>
<linearGradient id="paint4_linear_110_147" x1="17.3961" y1="43.8195" x2="54.4392" y2="43.8195" gradientUnits="userSpaceOnUse">
<stop stop-color="#E8E7E5"/>
<stop offset="1" stop-color="white"/>
</linearGradient>
<linearGradient id="paint5_linear_110_147" x1="15.6918" y1="17.1408" x2="55.9088" y2="17.1408" gradientUnits="userSpaceOnUse">
<stop stop-color="#E8E7E5"/>
<stop offset="1" stop-color="white"/>
</linearGradient>
</defs>
</svg>
