<svg width="24" height="24" viewBox="0 0 24 24" fill="none" xmlns="http://www.w3.org/2000/svg">
<path d="M21.6634 15.4207C21.4393 15.1959 21.1667 15.0834 20.8463 15.0834H15.2692L13.6346 16.7214C13.1698 17.171 12.625 17.3959 12 17.3959C11.3751 17.3959 10.8301 17.1713 10.3654 16.7214L8.74281 15.0834H3.15383C2.83338 15.0834 2.56096 15.196 2.33653 15.4207C2.11215 15.6454 2 15.9185 2 16.2398V20.0938C2 20.415 2.11215 20.688 2.33653 20.9128C2.56092 21.1376 2.83334 21.2499 3.15383 21.2499H20.8463C21.1667 21.2499 21.4393 21.1376 21.6635 20.9128C21.8879 20.688 22 20.415 22 20.0938V16.2398C22 15.9185 21.8879 15.6454 21.6634 15.4207ZM17.1565 19.4795C17.004 19.6321 16.8237 19.7084 16.6153 19.7084C16.407 19.7084 16.2269 19.6321 16.0745 19.4795C15.9223 19.3269 15.8463 19.1464 15.8463 18.9377C15.8463 18.729 15.9223 18.5481 16.0745 18.3957C16.2269 18.243 16.407 18.1666 16.6153 18.1666C16.8237 18.1666 17.004 18.243 17.1565 18.3957C17.3086 18.548 17.3847 18.7289 17.3847 18.9377C17.3847 19.1463 17.3086 19.3269 17.1565 19.4795ZM20.2332 19.4795C20.081 19.6321 19.9007 19.7084 19.6923 19.7084C19.484 19.7084 19.3038 19.6321 19.1515 19.4795C18.9994 19.3269 18.9233 19.1464 18.9233 18.9377C18.9233 18.729 18.9994 18.5481 19.1515 18.3957C19.3037 18.243 19.4839 18.1666 19.6923 18.1666C19.9006 18.1666 20.081 18.243 20.2332 18.3957C20.3854 18.548 20.4616 18.7289 20.4616 18.9377C20.4616 19.1463 20.3856 19.3269 20.2332 19.4795Z" fill="#03212F"/>
<path d="M11.4591 15.6255C11.6034 15.7779 11.7837 15.8542 12 15.8542C12.2164 15.8542 12.3965 15.7779 12.5408 15.6255L17.9255 10.2296C18.1738 9.99676 18.23 9.71568 18.0937 9.38646C17.9578 9.0734 17.7213 8.91685 17.3846 8.91668H14.3076V3.52086C14.3076 3.31213 14.2314 3.13144 14.0794 2.9789C13.927 2.82631 13.7468 2.75 13.5386 2.75H10.4614C10.2531 2.75 10.0728 2.82631 9.92052 2.9789C9.76834 3.13144 9.69218 3.31208 9.69218 3.52086V8.91672H6.61526C6.27855 8.91672 6.0423 9.07344 5.90607 9.3865C5.76992 9.7156 5.82595 9.99681 6.07442 10.2296L11.4591 15.6255Z" fill="#03212F"/>
</svg>
