<svg width="72" height="72" viewBox="0 0 72 72" fill="none" xmlns="http://www.w3.org/2000/svg">
<path fill-rule="evenodd" clip-rule="evenodd" d="M68 0L62.17 64.793L35.9616 72L9.82409 64.8047L4 0H68Z" fill="#FD3437"/>
<path fill-rule="evenodd" clip-rule="evenodd" d="M35.9971 66.4922L57.1788 60.668L62.1582 5.29688H35.9971V66.4922Z" fill="#FD7A64"/>
<path fill-rule="evenodd" clip-rule="evenodd" d="M24.6678 21.1934H36.003V13.248H15.9081L16.0971 15.3809L18.0641 37.2832H35.9911V29.332H25.4003L24.6678 21.1934ZM26.4694 41.2559H18.4303L19.5526 53.7363L35.9675 58.2539L36.003 58.2422V49.9746L35.9675 49.9863L27.0424 47.5957L26.4694 41.2559Z" fill="#EBEBEB"/>
<path fill-rule="evenodd" clip-rule="evenodd" d="M35.9734 37.2832H45.8377L44.9104 47.5898L35.9734 49.9805V58.248L52.4002 53.7305L52.5183 52.3887L54.4026 31.4648L54.5975 29.332H35.9734V37.2832ZM35.9734 21.1758V21.1934H55.324L55.4835 19.4062L55.8497 15.375L56.0387 13.2422H35.9734V21.1758Z" fill="white"/>
</svg>
