<svg width="72" height="72" viewBox="0 0 72 72" fill="none" xmlns="http://www.w3.org/2000/svg">
<path d="M36.0217 49.4654H20.3957L17.2032 59.4026C17.1192 59.7832 16.7832 60.0369 16.4051 59.9946H8.50808C8.04602 59.9946 7.92 59.7409 8.04602 59.2335L21.5718 20.0343C21.6978 19.6115 21.8239 19.1463 21.9919 18.6389C22.1599 17.7509 22.2439 16.8206 22.2439 15.8903C22.2019 15.6789 22.3699 15.4675 22.58 15.4252H33.4594C33.7954 15.4252 33.9635 15.552 34.0055 15.7635L49.3375 59.318C49.4635 59.7832 49.3375 59.9946 48.9175 59.9946H40.1383C39.8443 60.0369 39.5502 59.8255 39.4662 59.5295L36.0217 49.4654ZM22.832 40.8813H33.5014C33.2494 39.9933 32.9133 38.9362 32.5353 37.8367C32.1572 36.695 31.7792 35.4687 31.4011 34.2002C30.9811 32.8893 30.603 31.6207 30.183 30.3098C29.7629 28.999 29.3849 27.7727 29.0488 26.5464C28.7128 25.3624 28.4187 24.2629 28.1247 23.2481H28.0407C27.6626 25.0664 27.2006 26.8847 26.6125 28.703C25.9824 30.7327 25.3523 32.847 24.6802 34.9613C24.0922 37.1179 23.4621 39.1053 22.832 40.8813ZM58.7049 22.6138C57.3187 22.6561 55.9745 22.1064 54.9664 21.1338C54.0002 20.0766 53.4962 18.6812 53.5382 17.2435C53.4962 15.8057 54.0422 14.4526 55.0504 13.48C56.0585 12.5074 57.4027 12 58.7889 12C60.4271 12 61.6873 12.5074 62.6114 13.48C63.5355 14.4949 64.0396 15.848 63.9976 17.2435C64.0396 18.6812 63.5355 20.0766 62.5274 21.1338C61.5613 22.1486 60.1331 22.6984 58.7049 22.6138ZM54.0002 59.318V26.7578C54.0002 26.335 54.1683 26.1658 54.5463 26.1658H62.8634C63.2415 26.1658 63.4095 26.3772 63.4095 26.7578V59.318C63.4095 59.7832 63.2415 59.9946 62.8634 59.9946H54.6303C54.2103 59.9946 54.0002 59.7409 54.0002 59.318Z" fill="#FDC93F"/>
</svg>
