<svg width="72" height="72" viewBox="0 0 72 72" fill="none" xmlns="http://www.w3.org/2000/svg">
<path d="M14.4361 0.0372963C17.4187 0.0372963 20.3639 0.0372963 23.3465 0.0372963C37.7373 0.0372963 52.0909 0.0745927 66.4817 0C67.8984 0 68.0848 0.41026 67.9729 1.67834C67.0782 11.3008 66.2207 20.886 65.3632 30.5084C64.6176 38.7882 63.9092 47.068 63.1636 55.3478C62.8653 58.6671 62.5671 61.9492 62.3061 65.2686C62.2688 65.9399 62.0078 66.201 61.374 66.3502C53.1347 68.215 44.8955 70.0798 36.6189 71.9446C36.0596 72.0565 35.5377 71.9819 35.0157 71.8701C26.9629 70.0425 18.91 68.1777 10.8571 66.3875C10.0369 66.201 9.73859 65.9399 9.66403 65.0821C8.80655 55.0867 7.91178 45.0913 7.01701 35.0959C6.08496 24.541 5.11564 13.9861 4.14631 3.46856C3.81077 0.0372965 3.77348 0.0745927 7.20342 0.0745927C9.58946 0.0372963 12.0128 0.0372963 14.4361 0.0372963ZM37 52.5C37 57.2366 37 60.532 37 65.2686C37 65.9399 36.8136 66.7978 38.0066 66.4994C45.0529 64.8583 49.4164 63.5664 56.5 62C57.4693 61.7762 57.693 61.2168 57.7676 60.4709C57.9913 57.7109 58.2763 56.2599 58.5 53.5C58.7237 50.8147 59.0626 48.1853 59.2863 45.5C59.6218 41.6958 60.2183 37.8042 60.5539 34C60.8148 31.2028 61.1645 28.2972 61.5 25.5C61.9847 21.2855 62.0899 16.7145 62.5 12.5C62.7983 9.70277 62.4408 8.75993 63 6C63.2237 4.80652 63 4.20978 61.546 4.24707C53.1948 4.32166 47.2898 4.63518 38.9387 4.56059C37.4474 4.56059 37 4.97085 37 6.5C37.0746 17.95 37 27.55 37 39C36.9627 43.5129 37 48.0244 37 52.5ZM32 37.5C32 29.4813 31.9254 21.5187 32 13.5C32 12.2692 31.8136 11.7098 30.4342 11.8217C28.7565 11.9708 28.1777 12.6119 26.5 12.5C25.3443 12.4254 25.5 12.4557 25.5 13.5C25.5373 25.9943 26 38.2661 26 50.7603C26 53.11 24.4519 53.9243 22.215 53.2902C21.7303 53.141 21.2456 53.0664 21.3202 52.3578C21.3575 51.7984 20.9847 51.6119 20.5 51.5C18.8223 51.0151 18.6404 50.5738 17 50.0517C16.2544 49.8279 16.068 49.9771 16.1425 50.7603C16.4408 53.5203 18.2105 54.7883 18.3223 57.5483C18.3969 58.779 18.8443 59.2266 20 59.4877C24.6602 60.4574 25.8858 59.5623 30.5087 60.6439C31.739 60.9422 32 60.6812 32 59.4877C31.8882 51.3571 32 45.6306 32 37.5Z" fill="#F99C29"/>
<path d="M35.8358 52.5506C35.8358 48.0377 35.8358 43.5249 35.8358 39.012C35.8358 27.562 35.8731 16.0748 35.7985 4.62477C35.7985 3.13292 36.2459 2.68536 37.7372 2.68536C46.0883 2.75996 54.4768 2.75996 62.8279 2.68536C64.2819 2.68536 64.5429 3.24481 64.2819 4.43829C63.76 7.19822 63.76 10.0327 63.4617 12.7927C63.0516 17.0072 62.7906 21.2216 62.306 25.4361C61.9704 28.2334 61.8959 31.0306 61.6349 33.8278C61.2994 37.632 60.852 41.4736 60.5164 45.2778C60.2555 47.9631 60.0691 50.6858 59.8826 53.3711C59.659 56.131 59.4726 58.891 59.2489 61.6136C59.1743 62.3595 58.9506 62.919 57.9813 63.1427C50.935 64.7092 43.8887 66.3502 36.8051 67.9913C35.6121 68.2523 35.7985 67.4318 35.7985 66.7605C35.8358 62.0611 35.8358 57.3245 35.8358 52.5506ZM39.9999 26C41.0476 26 40.1117 34.5244 39.9999 39C39.9626 40.4173 40.4473 40.641 41.6776 40.5292C43.5417 40.3427 45.1358 40.1492 46.9999 40C47.8201 39.9254 48.1929 40.1492 48.0811 41.0443C47.7082 44.401 47.3354 50.0144 46.9999 53.3711C46.9253 54.117 46.5525 54.3781 45.9187 54.5273C44.0546 54.9748 42.864 55.5524 40.9999 56C40.2915 56.1865 39.9626 55.7914 39.9999 56.5C40.0372 58.3275 40.0372 57.6725 39.9999 59.5C39.9626 60.4324 40.2981 60.507 41.1183 60.3205C45.5549 59.2762 47.4076 59.387 51.8441 58.4173C52.6643 58.2308 52.9253 57.8205 52.9999 57C53.1863 54.5011 53.7389 52.9989 53.9999 50.5C54.5591 44.5326 54.4034 39.4301 54.9999 33.5C55.1117 32.2692 54.7389 31.9336 53.5459 32.0827C51.3463 32.3065 49.5237 32.5443 47.324 32.7681C46.2802 32.88 45.7955 32.7308 45.87 31.5C46.0192 28.1806 45.8328 22.4566 45.87 19.1372C45.87 18.3167 46.0565 18.0556 46.9512 18.0929C49.7101 18.1675 52.241 17.4627 54.9999 17.5C55.9319 17.5 56.4166 17.3881 56.4539 16.2692C56.5284 14.4417 56.5646 15.3275 56.7882 13.5C56.9001 12.5676 56.6391 12.1946 55.6325 12.1946C50.0402 12.2319 47.0922 12.5689 41.4999 12.5316C40.456 12.5316 40.1205 12.83 40.1577 13.8743C40.1205 18.499 39.9999 21.4498 39.9999 26Z" fill="#FDC93F"/>
<path d="M32.8904 37.0353C32.8904 45.1659 32.8531 53.2965 32.9277 61.3898C32.9277 62.6206 32.6667 62.8443 31.4364 62.546C26.8135 61.4271 22.1905 60.4201 17.5303 59.4504C16.3745 59.2266 15.8899 58.779 15.8526 57.511C15.7407 54.751 15.4425 51.9911 15.1442 49.2312C15.0697 48.4107 15.2561 48.2615 16.0017 48.5225C17.6421 49.0447 19.3198 49.5296 20.9602 50.0144C21.4449 50.1636 21.8177 50.3128 21.7804 50.8722C21.7058 51.5808 22.1905 51.6554 22.6752 51.8046C24.9121 52.476 24.9121 52.476 24.9121 50.1263C24.9121 37.632 24.9494 25.175 24.9121 12.6808C24.9121 11.5992 25.1358 11.1889 26.2915 11.2635C27.9692 11.3754 29.6842 11.4127 31.3246 11.2635C32.7413 11.1516 32.9277 11.7111 32.8904 12.9418C32.8531 20.9978 32.8904 29.0166 32.8904 37.0353Z" fill="#F5F4F3"/>
<path d="M39.4524 26.2939C39.4524 21.7438 39.4897 17.1936 39.4152 12.6062C39.4152 11.5619 39.7507 11.2635 40.7573 11.2635C46.3496 11.3008 51.9419 11.3008 57.5342 11.2635C58.5781 11.2635 58.8018 11.6365 58.6899 12.5689C58.4662 14.3964 58.2425 16.2239 58.168 18.0514C58.1307 19.1703 57.646 19.3195 56.714 19.2822C53.9551 19.2449 51.159 19.3195 48.4001 19.2449C47.5053 19.2076 47.3189 19.4687 47.3189 20.2892C47.2817 23.6086 47.2444 26.928 47.0952 30.2473C47.0207 31.4781 47.5426 31.6273 48.5492 31.5154C50.7489 31.2916 52.9858 31.217 55.1854 30.956C56.3412 30.8441 56.7513 31.1424 56.6394 32.3732C56.0429 38.3406 55.521 44.3081 54.9617 50.2382C54.738 52.737 54.4398 55.2732 54.2534 57.772C54.1788 58.5926 53.9178 59.0028 53.0976 59.1893C48.6611 60.159 44.2245 61.166 39.788 62.2103C38.9678 62.3968 38.6322 62.3222 38.6695 61.3898C38.7068 59.5623 38.7068 57.7347 38.6695 55.9072C38.6695 55.1986 38.8932 54.8629 39.6016 54.7137C41.4657 54.2662 43.3298 53.744 45.1939 53.2592C45.8277 53.11 46.2005 52.8489 46.275 52.103C46.6106 48.7463 46.9834 45.4269 47.3562 42.0703C47.4681 41.1752 47.0952 40.9514 46.275 41.026C44.4109 41.1752 42.5096 41.1752 40.6455 41.3616C39.4152 41.4735 38.9305 41.2498 38.9678 39.8325C39.1542 35.3196 39.3033 26.2939 39.4524 26.2939Z" fill="#FDFDFB"/>
</svg>
