<svg width="72" height="72" viewBox="0 0 72 72" fill="none" xmlns="http://www.w3.org/2000/svg">
<path d="M4 59.4862V11.7873C4 11.4631 4.13893 11.2779 4.4631 11.2779C5.25036 11.2779 5.99131 11.2779 7.05644 11.2315C8.16787 11.1852 9.32561 11.1852 10.576 11.1389C11.8263 11.0926 13.1693 11.0926 14.6049 11.0463C16.0405 11 17.4298 11 18.8191 11C22.6165 11 25.7655 11.4631 28.3589 12.4356C30.6744 13.2229 32.8046 14.5195 34.5644 16.233C36.0463 17.7149 37.204 19.521 37.945 21.5123C38.6396 23.4573 39.0101 25.4486 39.0101 27.5325C39.0101 31.5152 38.0839 34.8032 36.2315 37.3965C34.3791 39.9898 31.7858 41.9348 28.7757 43.0463C25.6266 44.204 22.1534 44.6208 18.356 44.6208C17.2446 44.6208 16.5036 44.6208 16.0405 44.5745C15.5774 44.5282 14.9291 44.5282 14.0492 44.5282V59.3936C14.0955 59.7178 13.864 59.9956 13.5398 60.0419H13.3545H4.55572C4.18524 60.0419 4 59.8567 4 59.4399V59.4862ZM14.0955 20.2619V35.822C14.7438 35.8683 15.3459 35.9146 15.9016 35.9146H18.356C20.1621 35.9146 21.9681 35.6367 23.6816 35.081C25.1635 34.6642 26.4602 33.7844 27.479 32.6266C28.4515 31.4689 28.9146 29.8943 28.9146 27.8567C28.9609 26.4211 28.5904 24.9855 27.8495 23.7352C27.0622 22.5311 25.9508 21.6049 24.6078 21.0955C22.8943 20.4009 21.042 20.123 19.1433 20.1693C17.9392 20.1693 16.8741 20.1693 15.9942 20.2156C15.068 20.1693 14.4197 20.2156 14.0955 20.2619Z" fill="#029BE4"/>
<path d="M45.6788 22.9942H53.7829C54.246 22.9942 54.6165 23.3184 54.7555 23.7351C54.8944 24.1056 54.987 24.4761 55.0333 24.8929C55.1259 25.356 55.2185 25.8654 55.2649 26.3285C55.3112 26.8379 55.3575 27.3936 55.3575 27.9956C56.7468 26.3748 58.4139 25.0318 60.3126 24.013C62.4429 22.8089 64.8973 22.2069 67.3517 22.2069C67.6758 22.1606 67.9537 22.3922 68 22.7163V22.9016V31.9319C68 32.3024 67.7685 32.4414 67.2591 32.4414C65.5919 32.395 63.8785 32.534 62.2576 32.9045C60.9146 33.1823 59.618 33.5991 58.3676 34.1548C57.4877 34.5716 56.6541 35.1273 56.0058 35.8683V59.4862C56.0058 59.9493 55.8206 60.1345 55.4038 60.1345H46.2808C45.9103 60.1808 45.5861 59.9493 45.5398 59.5788V59.3936V33.738C45.5398 32.6266 45.5398 31.4689 45.4935 30.2648C45.4472 29.0608 45.4472 27.8567 45.4009 26.6526C45.4009 25.5875 45.3083 24.5687 45.2157 23.5036C45.1694 23.272 45.3083 23.0405 45.5398 22.9942C45.5398 22.9479 45.6324 22.9479 45.6788 22.9942Z" fill="#029BE4"/>
</svg>
