<svg width="170" height="40" viewBox="0 0 170 40" fill="none" xmlns="http://www.w3.org/2000/svg">
<path d="M34.3039 2.07897V11.6778L22.6059 18.3357V4.99624L31.0161 0.29096C31.3429 0.104235 31.713 0.00406022 32.0906 0.000120087C32.4681 -0.00380677 32.8404 0.0886335 33.1711 0.2685C33.5019 0.448379 33.7799 0.709569 33.9784 1.02676C34.1769 1.34396 34.289 1.70639 34.3039 2.07897Z" fill="#36B4ED"/>
<path opacity="0.3" d="M10.9079 2.07897V11.6778L22.6059 18.3357V4.99624L14.1957 0.29096C13.8689 0.104235 13.4988 0.00406022 13.1212 0.000120087C12.7436 -0.00380677 12.3714 0.0886335 12.0407 0.2685C11.7099 0.448379 11.4319 0.709569 11.2334 1.02676C11.0349 1.34396 10.9228 1.70639 10.9079 2.07897Z" fill="#0EA5EA"/>
<path d="M31.9599 39.7631L23.7805 34.9995L23.9123 21.3484L35.2792 27.9683L35.1152 37.7422C35.1121 38.1241 35.0137 38.5012 34.8298 38.8371C34.6456 39.173 34.3822 39.4563 34.0648 39.6596C33.7474 39.8629 33.3869 39.9792 33.018 39.9974C32.6492 40.0154 32.2847 39.9348 31.9599 39.7631Z" fill="#36B4ED"/>
<path opacity="0.3" d="M43.5704 19.0692L35.3909 14.3057L23.9121 21.3485L35.2791 27.9685L43.4623 22.8646C43.7835 22.6682 44.0527 22.3905 44.2433 22.0586C44.4341 21.7265 44.5401 21.3515 44.5509 20.9697C44.5618 20.5878 44.4772 20.2123 44.3054 19.8793C44.1336 19.5463 43.8804 19.2673 43.5704 19.0692Z" fill="#0EA5EA"/>
<path opacity="0.3" d="M12.5922 39.7631L20.7715 34.9995L20.6397 21.3484L9.27271 27.9683L9.43688 37.7422C9.43996 38.1241 9.53827 38.5012 9.72229 38.8371C9.90632 39.173 10.1698 39.4563 10.4872 39.6596C10.8046 39.8629 11.1652 39.9792 11.534 39.9974C11.9028 40.0154 12.2673 39.9348 12.5922 39.7631Z" fill="#0EA5EA"/>
<path d="M0.981511 19.0692L9.16091 14.3057L20.6397 21.3485L9.27273 27.9685L1.08954 22.8646C0.768222 22.6682 0.499175 22.3905 0.30845 22.0586C0.117724 21.7265 0.011796 21.3515 0.000929714 20.9697C-0.00993787 20.5878 0.0746252 20.2123 0.246423 19.8793C0.418222 19.5463 0.671435 19.2673 0.981511 19.0692Z" fill="#36B4ED"/>
<path d="M162.806 12.48C164.903 12.48 166.619 13.12 167.956 14.4C169.319 15.68 170 17.7466 170 20.6V35H162.059V22.92C162.059 21.4533 161.902 20.3466 161.587 19.6C161.273 18.8533 160.749 18.48 160.015 18.48C158.888 18.48 158.141 19.0666 157.774 20.24C157.407 21.4133 157.224 23.1066 157.224 25.32V35H149.283V12.88H155.219L156.32 15.8H156.556C157.001 15.1066 157.512 14.52 158.089 14.04C158.665 13.5333 159.334 13.1466 160.094 12.88C160.88 12.6133 161.784 12.48 162.806 12.48Z" fill="white"/>
<path d="M136.794 12.48C139.336 12.48 141.328 13.1733 142.769 14.56C144.237 15.9466 144.971 17.92 144.971 20.48V35H139.507L137.974 32.08H137.816C137.24 32.8533 136.65 33.4933 136.047 34C135.445 34.48 134.75 34.8267 133.964 35.04C133.178 35.28 132.221 35.4 131.094 35.4C129.915 35.4 128.853 35.1467 127.91 34.64C126.967 34.1066 126.22 33.32 125.669 32.28C125.145 31.2133 124.883 29.8667 124.883 28.24C124.883 25.8667 125.643 24.1066 127.163 22.96C128.683 21.7866 130.845 21.1466 133.649 21.04L136.991 20.92V20.6C136.991 19.6133 136.794 18.92 136.401 18.52C136.034 18.0933 135.523 17.88 134.868 17.88C134.16 17.88 133.296 18.04 132.273 18.36C131.251 18.6533 130.229 19.04 129.207 19.52L127.045 14.48C128.303 13.8133 129.718 13.32 131.291 13C132.889 12.6533 134.724 12.48 136.794 12.48ZM135.733 25.2C134.711 25.2533 133.977 25.5066 133.531 25.96C133.112 26.3867 132.902 27 132.902 27.8C132.902 28.5467 133.06 29.1067 133.374 29.48C133.689 29.8267 134.095 30 134.593 30C135.248 30 135.825 29.7067 136.322 29.12C136.82 28.5333 137.069 27.7733 137.069 26.84V25.12L135.733 25.2Z" fill="white"/>
<path d="M121.474 12.8801V35.0001H115.538L114.555 32.2401H114.084C113.664 32.9868 113.127 33.6001 112.472 34.0801C111.843 34.5335 111.135 34.8668 110.349 35.0801C109.589 35.2935 108.803 35.4001 107.99 35.4001C106.68 35.4001 105.488 35.1201 104.413 34.5601C103.339 34.0001 102.474 33.1201 101.819 31.9201C101.164 30.7201 100.836 29.1735 100.836 27.2801V12.8801H108.777V24.9601C108.777 26.4001 108.921 27.4935 109.209 28.2401C109.497 28.9868 110.008 29.3601 110.742 29.3601C111.502 29.3601 112.079 29.1068 112.472 28.6001C112.891 28.0668 113.166 27.2935 113.297 26.2801C113.455 25.2668 113.533 24.0268 113.533 22.5601V12.8801H121.474Z" fill="white"/>
<path d="M83.7468 8.9201C83.7468 10.5468 83.7074 11.9201 83.6288 13.0401C83.5502 14.1601 83.4847 15.0134 83.4323 15.6001H83.7861C84.2316 14.8268 84.7164 14.2134 85.2406 13.7601C85.7909 13.3068 86.3937 12.9868 87.0488 12.8001C87.7302 12.5868 88.464 12.4801 89.2502 12.4801C90.5344 12.4801 91.7268 12.7601 92.8275 13.3201C93.9544 13.8801 94.8455 14.7601 95.5006 15.9601C96.182 17.1334 96.5227 18.6801 96.5227 20.6001V35.0001H88.5033V22.9201C88.5033 21.4534 88.3461 20.3468 88.0316 19.6001C87.7171 18.8534 87.2192 18.4801 86.5378 18.4801C85.8302 18.4801 85.2668 18.7468 84.8475 19.2801C84.4543 19.8134 84.1661 20.5868 83.9826 21.6001C83.8254 22.5868 83.7468 23.8134 83.7468 25.2801V35.0001H75.806V4.6001H83.7468V8.9201Z" fill="white"/>
<path d="M66.5869 34.9999H58.5675V12.7599H52.553V6.43994H72.6014V12.7599H66.5869V34.9999Z" fill="white"/>
</svg>
